<svg version="1.1" id="Layer_1" xmlns="http://www.w3.org/2000/svg" xmlns:xlink="http://www.w3.org/1999/xlink" x="0px" y="0px" viewBox="0 0 24 24" style="enable-background:new 0 0 496 496;" xml:space="preserve" width="24" height="24"><path style="fill:#ED3432;" d="M24 17.884c0 1.316 -1.045 2.245 -2.323 2.245H2.323c-1.277 0 -2.323 -0.929 -2.323 -2.245V6.116C0 4.8 1.045 3.871 2.323 3.871h19.355c1.277 0 2.323 0.929 2.323 2.245V17.884z"/><path style="fill:#DD0000;" d="M2.323 3.871h19.355c1.277 0 2.323 0.929 2.323 2.245v11.768c0 1.316 -1.2 2.245 -2.477 2.245"/><g><path style="fill:#CC0202;" d="M2.323 3.871h19.355c1.277 0 2.323 0.929 2.323 2.245V10.452"/><path style="fill:#CC0202;" d="M24 17.845c0 1.432 -1.045 2.284 -2.323 2.284H2.323c-1.277 0 -2.323 -1.006 -2.323 -2.323"/></g><path style="fill:#FDCE0C;" points="248,159.2 268.8,224 337.6,224 282.4,266.4 303.2,332 248,292 192.8,332.8 213.6,265.6 
	158.4,224 227.2,224 " d="M12 7.703L13.006 10.839L16.335 10.839L13.665 12.89L14.671 16.065L12 14.129L9.329 16.103L10.335 12.852L7.665 10.839L10.994 10.839Z"/><path style="fill:#FC9C10;" points="268.8,224 248,159.2 227.2,224 224.8,224 286.4,278.4 282.4,264.8 337.6,224 " d="M13.006 10.839L12 7.703L10.994 10.839L10.877 10.839L13.858 13.471L13.665 12.813L16.335 10.839Z"/></svg>