<svg xmlns="http://www.w3.org/2000/svg" viewBox="0 0 24 24" style="enable-background:new 0 0 512 512" xml:space="preserve" width="24" height="24"><path style="fill:#41479b" d="M22.203 4.138H1.797C.805 4.138 0 4.943 0 5.935v12.13c0 .993.805 1.797 1.797 1.797h20.405c.993 0 1.797-.805 1.797-1.797V5.935a1.796 1.796 0 0 0-1.796-1.797z"/><path style="fill:#f5f5f5" d="M23.975 5.638a1.798 1.798 0 0 0-1.773-1.5h-.468l-7.666 5.023V4.138H9.93v5.023L2.265 4.138h-.468c-.891 0-1.631.649-1.773 1.5l6.552 4.293H0v4.138h6.577L.025 18.362c.142.851.881 1.5 1.773 1.5h.468l7.666-5.023v5.023h4.138V14.84l7.666 5.023h.468c.891 0 1.631-.649 1.773-1.5l-6.552-4.293H24V9.932h-6.577l6.552-4.294z"/><path style="fill:#ff4b55" d="M13.241 4.138h-2.482v6.621H0v2.482h10.759v6.621h2.482v-6.621H24v-2.482H13.241Z"/><path style="fill:#ff4b55" d="m1.162 19.746 8.746-5.677h-1.52L.432 19.233c.195.227.445.406.73.513zm15.075-5.677h-1.52l8.471 5.499c.237-.156.435-.366.576-.613l-7.527-4.886zM.19 5.132l7.394 4.799h1.52L.725 4.493a1.79 1.79 0 0 0-.535.639zm15.399 4.799 7.97-5.174a1.809 1.809 0 0 0-.736-.509l-8.754 5.683h1.52z"/></svg>