<svg version="1.1" xmlns="http://www.w3.org/2000/svg" xmlns:xlink="http://www.w3.org/1999/xlink" viewBox="0 0 172 172"><g fill="none" fill-rule="nonzero" stroke="none" stroke-width="1" stroke-linecap="butt" stroke-linejoin="miter" stroke-miterlimit="10" stroke-dasharray="" stroke-dashoffset="0" font-family="none" font-weight="none" font-size="none" text-anchor="none" style="mix-blend-mode: normal"><path d="M0,172v-172h172v172z" fill="none"></path><g fill="#f1c40f"><path d="M40.9575,20.5325c-0.14781,0.02688 -0.29562,0.06719 -0.43,0.1075c-1.59906,0.36281 -2.72781,1.80063 -2.6875,3.44v3.44h-3.44c-0.1075,0 -0.215,0 -0.3225,0c-1.89469,0.09406 -3.37281,1.70656 -3.27875,3.60125c0.09406,1.89469 1.70656,3.37281 3.60125,3.27875h3.44v3.44c-0.01344,1.23625 0.63156,2.39188 1.70656,3.02344c1.075,0.61813 2.39187,0.61813 3.46687,0c1.075,-0.63156 1.72,-1.78719 1.70656,-3.02344v-3.44h3.44c1.23625,0.01344 2.39188,-0.63156 3.02344,-1.70656c0.61813,-1.075 0.61813,-2.39187 0,-3.46687c-0.63156,-1.075 -1.78719,-1.72 -3.02344,-1.70656h-3.44v-3.44c0.04031,-0.99437 -0.36281,-1.94844 -1.075,-2.62031c-0.72562,-0.68531 -1.70656,-1.02125 -2.6875,-0.92719zM124.3775,20.5325l-4.515,0.86c-12.60437,2.51281 -23.30062,11.5025 -27.8425,23.3275c-0.05375,0.12094 -0.65844,1.59906 -1.29,4.3c12.95375,2.62031 23.99938,11.35469 29.455,23.435c1.22281,-0.12094 2.41875,-0.215 3.655,-0.215c11.78469,0 22.29281,5.40188 29.24,13.8675c0.40313,-0.37625 0.69875,-0.59125 0.7525,-0.645c6.47688,-6.38281 10.45438,-14.92906 11.18,-23.9725l0.3225,-4.515l-4.515,0.86c-2.01562,0.40313 -4.00437,0.645 -6.02,0.645c-17.07906,0 -30.96,-13.89437 -30.96,-30.96c0,-0.84656 0.04031,-1.65281 0.1075,-2.4725zM82.56,55.04c-18.97375,0 -34.4,15.42625 -34.4,34.4c0,1.20938 0.08063,2.43219 0.215,3.655c-11.75781,1.58563 -20.855,11.69063 -20.855,23.865c0,13.27625 10.80375,24.08 24.08,24.08h72.24c17.07906,0 30.96,-13.88094 30.96,-30.96c0,-17.07906 -13.88094,-30.96 -30.96,-30.96c-2.795,0 -5.52281,0.34938 -8.17,1.075c-4.07156,-14.80812 -17.40156,-25.155 -33.11,-25.155zM13.4375,61.8125c-0.14781,0.02688 -0.29562,0.06719 -0.43,0.1075c-1.59906,0.36281 -2.72781,1.80063 -2.6875,3.44c-0.1075,0 -0.215,0 -0.3225,0c-1.89469,0.09406 -3.37281,1.70656 -3.27875,3.60125c0.09406,1.89469 1.70656,3.37281 3.60125,3.27875c-0.01344,1.23625 0.63156,2.39188 1.70656,3.02344c1.075,0.61813 2.39187,0.61813 3.46687,0c1.075,-0.63156 1.72,-1.78719 1.70656,-3.02344c1.23625,0.01344 2.39188,-0.63156 3.02344,-1.70656c0.61813,-1.075 0.61813,-2.39187 0,-3.46687c-0.63156,-1.075 -1.78719,-1.72 -3.02344,-1.70656c0.04031,-0.99437 -0.36281,-1.94844 -1.075,-2.62031c-0.72562,-0.68531 -1.70656,-1.02125 -2.6875,-0.92719z"></path></g></g></svg>